<?xml version="1.0" encoding="UTF-8"?>
<svg width="20px" height="20px" viewBox="0 0 20 20" version="1.1" xmlns="http://www.w3.org/2000/svg" xmlns:xlink="http://www.w3.org/1999/xlink">
    <!-- Generator: Sketch 54.1 (76490) - https://sketchapp.com -->
    <title>Path</title>
    <desc>Created with Sketch.</desc>
    <g id="Home-Page" stroke="none" stroke-width="1" fill="none" fill-rule="evenodd">
        <g id="Artboard" transform="translate(-637.000000, -13.000000)" fill="#000000" fill-rule="nonzero">
            <g id="github" transform="translate(637.000000, 13.000000)">
                <path d="M9.974,0 C4.465,0 2.27373675e-13,4.465 2.27373675e-13,9.974 C2.27373675e-13,14.38 2.857,18.119 6.821,19.439 C7.32,19.529 7.5,19.222 7.5,18.958 C7.5,18.721 7.492,18.093 7.489,17.262 C4.714,17.864 4.128,15.924 4.128,15.924 C3.676,14.772 3.021,14.465 3.021,14.465 C2.116,13.846 3.09,13.86 3.09,13.86 C4.092,13.93 4.617,14.888 4.617,14.888 C5.507,16.412 6.953,15.972 7.519,15.717 C7.61,15.072 7.87,14.632 8.154,14.383 C5.94,14.132 3.612,13.276 3.612,9.453 C3.612,8.366 4.001,7.474 4.636,6.778 C4.535,6.525 4.19,5.51 4.735,4.138 C4.735,4.138 5.572,3.869 7.477,5.159 C8.275,4.938 9.126,4.827 9.973,4.823 C10.822,4.827 11.674,4.938 12.469,5.159 C14.375,3.868 15.211,4.138 15.211,4.138 C15.756,5.51 15.414,6.525 15.31,6.778 C15.95,7.474 16.334,8.365 16.334,9.453 C16.334,13.286 14.004,14.128 11.782,14.375 C12.137,14.683 12.457,15.291 12.457,16.221 C12.457,17.555 12.445,18.631 12.445,18.958 C12.445,19.225 12.623,19.535 13.132,19.437 C17.094,18.115 19.948,14.379 19.948,9.974 C19.948,4.465 15.483,0 9.974,0 Z" id="Path"></path>
            </g>
        </g>
    </g>
</svg>